<svg width="1640" height="360" viewBox="0 0 1640 360" fill="none" xmlns="http://www.w3.org/2000/svg">
<rect width="1640" height="360" fill="#0E0E0E"/>
<path d="M586.7 173.6C587.833 173.6 591.2 171.867 596.8 168.4C596.8 168.333 596.7 165.2 596.5 159L588.9 159.7C583.5 160.233 580.8 162.733 580.8 167.2C580.8 171.467 582.767 173.6 586.7 173.6ZM609.3 149.4L608.9 172.4C611.3 172.733 613.967 173.333 616.9 174.2C619.833 168.333 621.3 161.6 621.3 154C621.3 143.8 618.367 135.967 612.5 130.5C606.633 125.033 598.667 122.3 588.6 122.3C578.6 122.3 570.667 125.033 564.8 130.5C558.933 135.967 556 143.933 556 154.4C556 164.8 559.2 173.4 565.6 180.2C572 187 579.6 190.4 588.4 190.4C593.6 190.4 599.833 189.7 607.1 188.3C614.367 186.9 619.2 185.5 621.6 184.1C622.267 184.767 622.9 185.9 623.5 187.5C624.167 189.167 624.567 190.667 624.7 192C622.1 193.733 616.933 195.333 609.2 196.8C601.533 198.267 594.633 199 588.5 199C576.167 199 566 194.8 558 186.4C550 178 546 167.367 546 154.5C546 141.567 549.667 131.5 557 124.3C564.4 117.1 574.933 113.5 588.6 113.5C602.333 113.5 612.867 116.933 620.2 123.8C627.6 130.6 631.3 140.167 631.3 152.5C631.3 157.767 629.733 163.167 626.6 168.7C623.467 174.233 620.133 177.833 616.6 179.5C615.133 180.167 612.767 180.867 609.5 181.6C606.233 182.4 603 182.8 599.8 182.8C599.333 181.867 598.7 180.2 597.9 177.8C591.967 181.533 587.533 183.4 584.6 183.4C579.467 183.4 575.333 182.067 572.2 179.4C569.133 176.667 567.6 172.867 567.6 168C567.6 157.067 574.333 151.367 587.8 150.9C591.2 150.9 593.967 150.833 596.1 150.7L596 149.1C595.867 145.367 595.2 142.633 594 140.9C592.867 139.167 590.833 138.3 587.9 138.3L584.7 138.9L582.4 149L578.8 149.1L573.1 148.4C571.833 144.933 571.167 140.467 571.1 135C572.5 134.267 575.6 133.133 580.4 131.6C585.267 130.067 588.333 129.3 589.6 129.3C596.8 129.3 601.867 130.9 604.8 134.1C607.8 137.233 609.3 142.333 609.3 149.4ZM661.104 138.8C660.971 138.467 660.304 138.3 659.104 138.3C657.904 138.3 655.837 139.2 652.904 141C652.637 154.067 652.471 163.867 652.404 170.4L660.204 171.4C660.204 174.267 659.437 177.133 657.904 180H633.004L632.104 174.5C636.237 172.967 639.237 171.967 641.104 171.5L640.004 139.1C636.537 138.833 633.637 138.333 631.304 137.6L632.004 130.4C633.804 129.6 640.304 129.067 651.504 128.8C652.104 129.4 652.404 130.567 652.404 132.3C658.271 129.433 661.971 128 663.504 128C665.104 128 667.037 128.4 669.304 129.2C671.637 129.933 673.404 130.733 674.604 131.6V133.3C674.604 138.767 673.937 143.833 672.604 148.5C671.471 148.967 669.971 149.2 668.104 149.2C666.237 149.2 664.504 149.1 662.904 148.9C662.704 148.033 662.104 144.667 661.104 138.8ZM693.326 181.2C687.659 181.2 683.259 180.033 680.126 177.7C677.059 175.367 675.526 171.433 675.526 165.9C675.526 160.633 677.359 156.333 681.026 153C683.159 151.067 686.126 149.933 689.926 149.6C693.726 149.267 698.959 149.1 705.626 149.1V147.5C705.626 143.433 704.959 140.467 703.626 138.6C702.359 136.667 700.092 135.7 696.826 135.7C695.159 135.7 693.659 136.033 692.326 136.7L689.926 145.4L682.526 145.2C680.859 142.667 679.959 138.633 679.826 133.1C681.159 132.433 684.292 131.433 689.226 130.1C694.159 128.7 697.326 128 698.726 128C705.926 128 711.159 129.5 714.426 132.5C717.692 135.433 719.326 140.133 719.326 146.6C719.326 153 719.026 161.467 718.426 172C722.226 172.333 725.159 172.9 727.226 173.7C727.292 174.5 727.326 175.467 727.326 176.6L727.226 178.8C722.426 180.4 717.592 181.2 712.726 181.2C711.459 181.2 710.526 181.167 709.926 181.1C708.926 179.1 708.326 176.7 708.126 173.9H707.626C706.359 175.1 704.126 176.633 700.926 178.5C697.792 180.3 695.259 181.2 693.326 181.2ZM688.326 166.5C688.326 168.7 688.992 170.333 690.326 171.4C691.726 172.4 693.292 172.9 695.026 172.9C696.759 172.9 698.826 172.133 701.226 170.6C703.626 169 705.559 167.567 707.026 166.3L706.526 157.1C701.259 157.367 697.292 157.867 694.626 158.6C690.426 159.467 688.326 162.1 688.326 166.5ZM767.532 161.7C768.599 165.5 769.132 168.8 769.132 171.6C769.132 174.4 768.999 177.2 768.732 180H729.932C728.599 178.067 727.865 175.7 727.732 172.9L753.132 137.8H742.832L740.632 147.7C740.099 147.767 738.899 147.8 737.032 147.8C735.232 147.8 733.265 147.567 731.132 147.1C730.199 142.3 729.732 138.567 729.732 135.9C729.732 133.233 729.832 131 730.032 129.2H766.732C767.665 131.067 768.132 133.5 768.132 136.5L743.832 171H755.932L758.132 161.1C762.265 161.1 765.399 161.3 767.532 161.7ZM800.267 165L803.967 150.1L809.267 137.3C807.001 136.9 804.201 136.033 800.867 134.7L801.767 129.2H826.667C828.201 132.267 828.967 135.167 828.967 137.9C826.367 138.3 823.767 138.567 821.167 138.7C819.834 143.167 817.201 150.067 813.267 159.4C809.401 168.733 806.801 175.6 805.467 180H792.567L776.667 138.8L768.867 137.9C768.867 135.167 769.634 132.267 771.167 129.2H796.067L796.967 134.7C794.234 135.967 791.934 136.833 790.067 137.3L794.867 150L798.367 165H800.267ZM848.752 181.2C843.085 181.2 838.685 180.033 835.552 177.7C832.485 175.367 830.952 171.433 830.952 165.9C830.952 160.633 832.785 156.333 836.452 153C838.585 151.067 841.552 149.933 845.352 149.6C849.152 149.267 854.385 149.1 861.052 149.1V147.5C861.052 143.433 860.385 140.467 859.052 138.6C857.785 136.667 855.518 135.7 852.252 135.7C850.585 135.7 849.085 136.033 847.752 136.7L845.352 145.4L837.952 145.2C836.285 142.667 835.385 138.633 835.252 133.1C836.585 132.433 839.718 131.433 844.652 130.1C849.585 128.7 852.752 128 854.152 128C861.352 128 866.585 129.5 869.852 132.5C873.118 135.433 874.752 140.133 874.752 146.6C874.752 153 874.452 161.467 873.852 172C877.652 172.333 880.585 172.9 882.652 173.7C882.718 174.5 882.752 175.467 882.752 176.6L882.652 178.8C877.852 180.4 873.018 181.2 868.152 181.2C866.885 181.2 865.952 181.167 865.352 181.1C864.352 179.1 863.752 176.7 863.552 173.9H863.052C861.785 175.1 859.552 176.633 856.352 178.5C853.218 180.3 850.685 181.2 848.752 181.2ZM843.752 166.5C843.752 168.7 844.418 170.333 845.752 171.4C847.152 172.4 848.718 172.9 850.452 172.9C852.185 172.9 854.252 172.133 856.652 170.6C859.052 169 860.985 167.567 862.452 166.3L861.952 157.1C856.685 157.367 852.718 157.867 850.052 158.6C845.852 159.467 843.752 162.1 843.752 166.5ZM915.158 128C921.824 128 926.658 129.633 929.658 132.9C932.658 136.167 934.158 140.733 934.158 146.6C934.158 152.467 933.824 160.4 933.158 170.4L941.058 171.3C941.058 174.033 940.291 176.933 938.758 180H913.858L912.958 174.5C916.091 173.233 918.991 172.233 921.658 171.5C921.458 163.833 921.258 157.4 921.058 152.2C920.858 146.933 920.358 143.367 919.558 141.5C918.758 139.633 916.991 138.7 914.258 138.7C910.124 138.7 906.424 139.433 903.158 140.9C903.091 143.767 902.891 148.467 902.558 155C902.291 161.467 902.124 166.6 902.058 170.4L909.858 171.3C909.858 174.033 909.091 176.933 907.558 180H882.658L881.758 174.5C885.091 173.233 888.091 172.233 890.758 171.5C890.691 167.5 890.458 161.967 890.058 154.9C889.724 147.833 889.524 142.6 889.458 139.2C886.991 138.933 884.358 138.433 881.558 137.7L882.058 130.5C886.724 129.233 891.991 128.6 897.858 128.6C898.591 129.067 899.591 130.5 900.858 132.9C903.124 131.767 905.891 130.667 909.158 129.6C912.424 128.533 914.424 128 915.158 128ZM970.979 138.8C970.846 138.467 970.179 138.3 968.979 138.3C967.779 138.3 965.712 139.2 962.779 141C962.512 154.067 962.346 163.867 962.279 170.4L970.079 171.4C970.079 174.267 969.312 177.133 967.779 180H942.879L941.979 174.5C946.112 172.967 949.112 171.967 950.979 171.5L949.879 139.1C946.412 138.833 943.512 138.333 941.179 137.6L941.879 130.4C943.679 129.6 950.179 129.067 961.379 128.8C961.979 129.4 962.279 130.567 962.279 132.3C968.146 129.433 971.846 128 973.379 128C974.979 128 976.912 128.4 979.179 129.2C981.512 129.933 983.279 130.733 984.479 131.6V133.3C984.479 138.767 983.812 143.833 982.479 148.5C981.346 148.967 979.846 149.2 977.979 149.2C976.112 149.2 974.379 149.1 972.779 148.9C972.579 148.033 971.979 144.667 970.979 138.8ZM1032.2 128.8C1033.47 128.8 1034.27 128.833 1034.6 128.9C1034.6 132.3 1034.03 135.233 1032.9 137.7C1032.5 152.367 1032.17 163.2 1031.9 170.2C1034.9 170.467 1037.53 170.967 1039.8 171.7L1039.6 178.7C1035.53 179.967 1032.03 180.6 1029.1 180.6C1026.17 180.6 1024.17 180.533 1023.1 180.4C1022.3 178.8 1021.63 177.2 1021.1 175.6C1015.57 179.333 1011.57 181.2 1009.1 181.2C997.167 181.2 991.201 175.167 991.201 163.1C991.201 159.833 991.467 151.8 992.001 139C988.467 139 985.234 138.533 982.301 137.6C982.301 135.933 982.534 133.533 983.001 130.4C986.934 129.333 993.667 128.8 1003.2 128.8C1004.47 128.8 1005.27 128.833 1005.6 128.9C1005.6 132.167 1005.03 135.2 1003.9 138V158.2C1003.9 162.467 1004.33 165.6 1005.2 167.6C1006.13 169.533 1008.07 170.5 1011 170.5C1014 170.5 1017.07 169.467 1020.2 167.4L1019.6 139C1016.67 138.867 1013.9 138.4 1011.3 137.6C1011.3 135.933 1011.53 133.533 1012 130.4C1015.93 129.333 1022.67 128.8 1032.2 128.8ZM1075.17 128C1081.84 128 1086.67 129.633 1089.67 132.9C1092.67 136.167 1094.17 140.733 1094.17 146.6C1094.17 152.467 1093.84 160.4 1093.17 170.4L1101.07 171.3C1101.07 174.033 1100.31 176.933 1098.77 180H1073.87L1072.97 174.5C1076.11 173.233 1079.01 172.233 1081.67 171.5C1081.47 163.833 1081.27 157.4 1081.07 152.2C1080.87 146.933 1080.37 143.367 1079.57 141.5C1078.77 139.633 1077.01 138.7 1074.27 138.7C1070.14 138.7 1066.44 139.433 1063.17 140.9C1063.11 143.767 1062.91 148.467 1062.57 155C1062.31 161.467 1062.14 166.6 1062.07 170.4L1069.87 171.3C1069.87 174.033 1069.11 176.933 1067.57 180H1042.67L1041.77 174.5C1045.11 173.233 1048.11 172.233 1050.77 171.5C1050.71 167.5 1050.47 161.967 1050.07 154.9C1049.74 147.833 1049.54 142.6 1049.47 139.2C1047.01 138.933 1044.37 138.433 1041.57 137.7L1042.07 130.5C1046.74 129.233 1052.01 128.6 1057.87 128.6C1058.61 129.067 1059.61 130.5 1060.87 132.9C1063.14 131.767 1065.91 130.667 1069.17 129.6C1072.44 128.533 1074.44 128 1075.17 128Z" fill="white"/>
<line x1="634" y1="209.5" x2="782.003" y2="209.5" stroke="white"/>
<line x1="857" y1="209.5" x2="1005" y2="209.5" stroke="white"/>
<line x1="812" y1="209.5" x2="828.035" y2="209.5" stroke="white"/>
<path d="M644.87 272.985C649.34 272.985 651.575 271.17 651.575 267.54C651.575 265.77 650.48 264.27 648.29 263.04C647.3 262.47 646.205 261.93 645.005 261.42C643.835 260.91 642.65 260.355 641.45 259.755C640.25 259.155 639.155 258.51 638.165 257.82C637.205 257.13 636.41 256.26 635.78 255.21C635.18 254.16 634.88 252.975 634.88 251.655C634.88 249.495 635.75 247.665 637.49 246.165C639.26 244.635 641.675 243.87 644.735 243.87C647.795 243.87 651.02 244.8 654.41 246.66C654.41 248.37 654.2 250.515 653.78 253.095C653.12 253.185 652.25 253.23 651.17 253.23L649.82 248.01C649.46 247.83 648.74 247.65 647.66 247.47C646.61 247.29 645.68 247.2 644.87 247.2C643.13 247.2 641.78 247.575 640.82 248.325C639.86 249.045 639.38 250.065 639.38 251.385C639.38 252.675 639.935 253.845 641.045 254.895C642.185 255.915 643.55 256.8 645.14 257.55C646.76 258.27 648.365 259.02 649.955 259.8C651.575 260.58 652.94 261.6 654.05 262.86C655.19 264.09 655.76 265.53 655.76 267.18C655.76 270.18 654.755 272.505 652.745 274.155C650.735 275.775 648.11 276.585 644.87 276.585C643.1 276.585 641.18 276.315 639.11 275.775C637.07 275.205 635.375 274.485 634.025 273.615C634.085 271.605 634.31 269.28 634.7 266.64C635.36 266.55 636.23 266.505 637.31 266.505L638.255 271.905C638.915 272.175 639.905 272.43 641.225 272.67C642.575 272.88 643.79 272.985 644.87 272.985ZM668.911 273.84C671.431 273.84 673.126 273.06 673.996 271.5C674.896 269.91 675.346 267.66 675.346 264.75C675.346 260.13 674.326 257.235 672.286 256.065C671.446 255.585 670.261 255.345 668.731 255.345C667.231 255.345 665.806 255.66 664.456 256.29C663.256 258.6 662.656 261.285 662.656 264.345C662.656 267.285 663.046 269.55 663.826 271.14C664.726 272.94 666.421 273.84 668.911 273.84ZM658.516 264.75C658.516 260.94 659.386 257.97 661.126 255.84C662.866 253.68 665.551 252.6 669.181 252.6C672.811 252.6 675.436 253.59 677.056 255.57C678.676 257.52 679.486 260.415 679.486 264.255C679.486 268.095 678.616 271.11 676.876 273.3C675.166 275.49 672.556 276.585 669.046 276.585C665.536 276.585 662.896 275.565 661.126 273.525C659.386 271.485 658.516 268.56 658.516 264.75ZM696.86 249.585L696.14 249.54H695.96L694.565 245.13C693.905 245.01 693.32 244.95 692.81 244.95C691.34 244.95 690.305 245.52 689.705 246.66C689.135 247.8 688.85 249.795 688.85 252.645V253.185H689.525C691.595 253.185 693.185 253.305 694.295 253.545C694.325 253.545 694.385 253.56 694.475 253.59C694.445 254.46 694.19 255.345 693.71 256.245H688.58V272.94H689.255C690.425 272.94 691.46 273 692.36 273.12C693.26 273.24 693.74 273.33 693.8 273.39C693.8 274.17 693.545 275.04 693.035 276H681.245L681.11 274.425C682.49 273.945 683.75 273.585 684.89 273.345V256.245H681.425L681.29 254.67C682.37 254.25 683.57 253.92 684.89 253.68V251.835C684.89 248.445 685.52 245.97 686.78 244.41C687.29 243.81 688.01 243.315 688.94 242.925C689.87 242.505 690.95 242.295 692.18 242.295C694.58 242.295 696.86 242.82 699.02 243.87C699.02 245.73 698.84 247.59 698.48 249.45C698.15 249.54 697.61 249.585 696.86 249.585ZM700.827 273.21L700.467 256.245H697.002L696.867 254.67C697.167 254.46 698.037 254.07 699.477 253.5L703.167 247.74C703.767 247.8 704.232 247.95 704.562 248.19L704.517 253.14C706.767 253.14 708.612 253.29 710.052 253.59C710.052 254.4 709.797 255.285 709.287 256.245H704.427C704.367 259.845 704.307 265.305 704.247 272.625C705.927 272.715 707.607 273.015 709.287 273.525L709.242 275.1C708.822 275.37 707.742 275.685 706.002 276.045C704.292 276.405 702.882 276.585 701.772 276.585C701.622 276.345 701.427 275.835 701.187 275.055C700.947 274.245 700.827 273.63 700.827 273.21ZM729.882 258.315H729.702L724.572 276H720.117L713.952 256.2L710.172 255.84C710.172 255 710.427 254.1 710.937 253.14H721.287L721.422 254.715C720.462 255.135 719.397 255.465 718.227 255.705L721.422 267.99L722.232 271.95H722.682L723.582 267.945L728.127 253.14C728.487 253.11 728.742 253.095 728.892 253.095L731.997 253.185L736.812 267.99L737.802 271.95H738.207L738.927 267.945L742.707 255.705L738.927 254.715L739.062 253.14H749.187C749.697 254.1 749.952 255 749.952 255.84C748.722 255.99 747.492 256.095 746.262 256.155L740.097 276H735.642L729.882 258.315ZM768.104 261.285L767.879 272.895C769.169 272.985 770.459 273.195 771.749 273.525L771.659 275.1C771.179 275.34 770.309 275.61 769.049 275.91C767.819 276.18 766.604 276.315 765.404 276.315C764.864 275.235 764.564 274.2 764.504 273.21C761.084 275.46 758.684 276.585 757.304 276.585C755.174 276.585 753.464 276.015 752.174 274.875C750.884 273.735 750.239 272.145 750.239 270.105C750.239 265.395 753.119 262.965 758.879 262.815C762.239 262.725 763.934 262.68 763.964 262.68L763.919 261.15C763.859 259.08 763.469 257.595 762.749 256.695C762.029 255.765 760.739 255.3 758.879 255.3C758.099 255.3 757.259 255.48 756.359 255.84L755.279 260.34C755.129 260.37 754.874 260.385 754.514 260.385L752.669 260.25C752.189 258.96 751.934 257.175 751.904 254.895C752.474 254.595 753.779 254.145 755.819 253.545C757.859 252.915 759.164 252.6 759.734 252.6C762.794 252.6 764.954 253.275 766.214 254.625C767.474 255.975 768.104 258.195 768.104 261.285ZM758.294 273.525C759.164 273.525 761.174 272.55 764.324 270.6L764.099 264.975C762.059 265.155 760.349 265.32 758.969 265.47C757.589 265.62 756.479 266.025 755.639 266.685C754.799 267.315 754.379 268.32 754.379 269.7C754.379 272.25 755.684 273.525 758.294 273.525ZM787.186 256.38C787.036 256.23 786.706 256.155 786.196 256.155C785.686 256.155 784.921 256.335 783.901 256.695C782.911 257.055 782.011 257.475 781.201 257.955C781.021 264.615 780.901 269.61 780.841 272.94L784.621 273.3C784.621 274.14 784.366 275.04 783.856 276H773.506L773.371 274.425C774.751 273.945 776.101 273.585 777.421 273.345C777.241 265.725 777.091 260.085 776.971 256.425C775.321 256.335 774.001 256.155 773.011 255.885L773.191 253.545C774.781 253.095 777.136 252.87 780.256 252.87C780.736 253.62 781.036 254.58 781.156 255.75C784.606 253.65 786.661 252.6 787.321 252.6C787.981 252.6 788.746 252.735 789.616 253.005C790.486 253.245 791.131 253.515 791.551 253.815C791.551 256.815 791.266 259.26 790.696 261.15C790.276 261.27 789.781 261.33 789.211 261.33C788.671 261.33 788.296 261.315 788.086 261.285L787.186 256.38ZM804.116 273.48C805.436 273.48 807.506 272.85 810.326 271.59C810.896 272.37 811.196 273.06 811.226 273.66C809.696 274.56 808.196 275.265 806.726 275.775C805.256 276.285 804.206 276.54 803.576 276.54C800.096 276.54 797.441 275.505 795.611 273.435C793.781 271.335 792.866 268.41 792.866 264.66C792.866 260.91 793.751 257.97 795.521 255.84C797.321 253.68 800.006 252.6 803.576 252.6C806.336 252.6 808.436 253.59 809.876 255.57C811.346 257.55 812.081 260.205 812.081 263.535C811.841 263.955 811.646 264.24 811.496 264.39L797.006 264.165C797.036 267.195 797.561 269.505 798.581 271.095C799.631 272.685 801.476 273.48 804.116 273.48ZM807.986 261.6C807.986 259.62 807.626 258.09 806.906 257.01C806.186 255.9 804.986 255.345 803.306 255.345C801.626 255.345 800.126 255.66 798.806 256.29C797.906 258.09 797.336 259.935 797.096 261.825C799.466 261.795 803.096 261.72 807.986 261.6ZM833.793 247.605L833.568 258.45H840.678L841.038 255.21C841.878 255.21 842.778 255.465 843.738 255.975V264.525L842.163 264.66C841.713 263.37 841.413 262.29 841.263 261.42H833.568C833.508 264.03 833.448 267.885 833.388 272.985H843.693L844.773 268.755L847.383 268.935C847.803 270.645 848.013 272.16 848.013 273.48C848.013 274.77 847.983 275.61 847.923 276H826.053L825.918 274.425C827.238 273.945 828.513 273.6 829.743 273.39C829.563 261.69 829.413 252.99 829.293 247.29C828.633 247.23 827.313 246.87 825.333 246.21L825.558 244.5H847.248C847.308 244.89 847.338 245.49 847.338 246.3C847.338 247.95 847.128 249.735 846.708 251.655C846.048 251.805 845.178 251.88 844.098 251.88L843.018 247.605H833.793ZM865.506 252.6C868.386 252.6 870.471 253.32 871.761 254.76C873.051 256.17 873.696 258.33 873.696 261.24C873.696 262.08 873.576 265.98 873.336 272.94L877.116 273.3C877.116 274.14 876.861 275.04 876.351 276H866.001L865.866 274.425C867.246 273.945 868.596 273.585 869.916 273.345C869.736 265.485 869.571 261.12 869.421 260.25C869.301 259.35 869.091 258.57 868.791 257.91C868.491 257.25 868.041 256.785 867.441 256.515C866.841 256.245 866.046 256.11 865.056 256.11C863.076 256.11 861.156 256.59 859.296 257.55C859.116 264.39 858.996 269.52 858.936 272.94L862.716 273.3C862.716 274.14 862.461 275.04 861.951 276H851.601L851.466 274.425C852.846 273.945 854.196 273.585 855.516 273.345C855.336 265.725 855.186 260.085 855.066 256.425C853.416 256.335 852.096 256.155 851.106 255.885L851.286 253.545C852.906 253.095 855.261 252.87 858.351 252.87C858.711 253.41 858.981 254.19 859.161 255.21C860.451 254.52 861.741 253.92 863.031 253.41C864.351 252.87 865.176 252.6 865.506 252.6ZM890.175 273.255L894.18 273.165C898.32 273.165 900.39 274.875 900.39 278.295C900.39 279.885 899.7 281.355 898.32 282.705C896.97 284.085 895.35 285.12 893.46 285.81C891.57 286.5 889.8 286.845 888.15 286.845C886.53 286.845 885.015 286.605 883.605 286.125C882.195 285.675 880.995 284.925 880.005 283.875C879.015 282.825 878.52 281.61 878.52 280.23C878.52 279.9 879.045 279.03 880.095 277.62C881.175 276.24 881.88 275.43 882.21 275.19C881.94 275.01 881.415 274.5 880.635 273.66C879.855 272.79 879.42 272.19 879.33 271.86C880.08 270.48 881.265 269.13 882.885 267.81C880.485 266.37 879.285 264 879.285 260.7C879.285 258.06 880.125 256.05 881.805 254.67C883.485 253.29 885.585 252.6 888.105 252.6C890.625 252.6 892.575 253.005 893.955 253.815C896.355 253.335 898.71 253.095 901.02 253.095C901.59 253.095 901.875 253.44 901.875 254.13C901.875 255.33 901.65 256.155 901.2 256.605L896.025 255.75C897.105 257.13 897.645 258.78 897.645 260.7C897.645 263.7 896.76 265.86 894.99 267.18C893.22 268.47 891.045 269.115 888.465 269.115C887.655 269.115 886.695 269.01 885.585 268.8C885.135 269.73 884.565 270.735 883.875 271.815C884.415 272.775 886.515 273.255 890.175 273.255ZM895.89 281.535C896.19 280.695 896.34 279.825 896.34 278.925C896.34 278.055 895.995 277.35 895.305 276.81C894.615 276.27 893.73 276 892.65 276C888.36 276 885.735 275.955 884.775 275.865C883.965 277.155 883.395 278.235 883.065 279.105C882.765 280.005 882.615 280.515 882.615 280.635C882.615 281.805 883.17 282.675 884.28 283.245C885.39 283.815 886.665 284.1 888.105 284.1C889.575 284.1 891.045 283.86 892.515 283.38C894.015 282.9 895.14 282.285 895.89 281.535ZM893.595 260.88C893.595 257.16 891.885 255.3 888.465 255.3C885.045 255.3 883.335 257.1 883.335 260.7C883.335 262.53 883.785 263.94 884.685 264.93C885.585 265.92 886.89 266.415 888.6 266.415C891.93 266.415 893.595 264.57 893.595 260.88ZM911.511 248.865C910.731 249.045 909.966 249.135 909.216 249.135C908.496 249.135 907.776 249.09 907.056 249C906.876 248.16 906.786 247.32 906.786 246.48C906.786 245.61 906.816 244.965 906.876 244.545C907.536 244.395 908.226 244.32 908.946 244.32C909.696 244.32 910.491 244.35 911.331 244.41C911.511 245.19 911.601 245.955 911.601 246.705C911.601 247.425 911.571 248.145 911.511 248.865ZM903.321 253.59C905.871 253.14 907.851 252.915 909.261 252.915C910.671 252.915 911.571 252.945 911.961 253.005C911.961 253.725 911.871 254.52 911.691 255.39C911.511 256.26 911.406 256.68 911.376 256.65L910.971 272.94L914.751 273.3C914.751 274.14 914.496 275.04 913.986 276H903.636L903.501 274.425C904.881 273.945 906.231 273.585 907.551 273.345C907.371 265.845 907.221 260.22 907.101 256.47C905.361 256.47 904.041 256.29 903.141 255.93L903.321 253.59ZM930.394 252.6C933.274 252.6 935.359 253.32 936.649 254.76C937.939 256.17 938.584 258.33 938.584 261.24C938.584 262.08 938.464 265.98 938.224 272.94L942.004 273.3C942.004 274.14 941.749 275.04 941.239 276H930.889L930.754 274.425C932.134 273.945 933.484 273.585 934.804 273.345C934.624 265.485 934.459 261.12 934.309 260.25C934.189 259.35 933.979 258.57 933.679 257.91C933.379 257.25 932.929 256.785 932.329 256.515C931.729 256.245 930.934 256.11 929.944 256.11C927.964 256.11 926.044 256.59 924.184 257.55C924.004 264.39 923.884 269.52 923.824 272.94L927.604 273.3C927.604 274.14 927.349 275.04 926.839 276H916.489L916.354 274.425C917.734 273.945 919.084 273.585 920.404 273.345C920.224 265.725 920.074 260.085 919.954 256.425C918.304 256.335 916.984 256.155 915.994 255.885L916.174 253.545C917.794 253.095 920.149 252.87 923.239 252.87C923.599 253.41 923.869 254.19 924.049 255.21C925.339 254.52 926.629 253.92 927.919 253.41C929.239 252.87 930.064 252.6 930.394 252.6ZM954.613 273.48C955.933 273.48 958.003 272.85 960.823 271.59C961.393 272.37 961.693 273.06 961.723 273.66C960.193 274.56 958.693 275.265 957.223 275.775C955.753 276.285 954.703 276.54 954.073 276.54C950.593 276.54 947.938 275.505 946.108 273.435C944.278 271.335 943.363 268.41 943.363 264.66C943.363 260.91 944.248 257.97 946.018 255.84C947.818 253.68 950.503 252.6 954.073 252.6C956.833 252.6 958.933 253.59 960.373 255.57C961.843 257.55 962.578 260.205 962.578 263.535C962.338 263.955 962.143 264.24 961.993 264.39L947.503 264.165C947.533 267.195 948.058 269.505 949.078 271.095C950.128 272.685 951.973 273.48 954.613 273.48ZM958.483 261.6C958.483 259.62 958.123 258.09 957.403 257.01C956.683 255.9 955.483 255.345 953.803 255.345C952.123 255.345 950.623 255.66 949.303 256.29C948.403 258.09 947.833 259.935 947.593 261.825C949.963 261.795 953.593 261.72 958.483 261.6ZM976.74 273.48C978.06 273.48 980.13 272.85 982.95 271.59C983.52 272.37 983.82 273.06 983.85 273.66C982.32 274.56 980.82 275.265 979.35 275.775C977.88 276.285 976.83 276.54 976.2 276.54C972.72 276.54 970.065 275.505 968.235 273.435C966.405 271.335 965.49 268.41 965.49 264.66C965.49 260.91 966.375 257.97 968.145 255.84C969.945 253.68 972.63 252.6 976.2 252.6C978.96 252.6 981.06 253.59 982.5 255.57C983.97 257.55 984.705 260.205 984.705 263.535C984.465 263.955 984.27 264.24 984.12 264.39L969.63 264.165C969.66 267.195 970.185 269.505 971.205 271.095C972.255 272.685 974.1 273.48 976.74 273.48ZM980.61 261.6C980.61 259.62 980.25 258.09 979.53 257.01C978.81 255.9 977.61 255.345 975.93 255.345C974.25 255.345 972.75 255.66 971.43 256.29C970.53 258.09 969.96 259.935 969.72 261.825C972.09 261.795 975.72 261.72 980.61 261.6ZM1001.25 256.38C1001.1 256.23 1000.77 256.155 1000.26 256.155C999.753 256.155 998.988 256.335 997.968 256.695C996.978 257.055 996.078 257.475 995.268 257.955C995.088 264.615 994.968 269.61 994.908 272.94L998.688 273.3C998.688 274.14 998.433 275.04 997.923 276H987.573L987.438 274.425C988.818 273.945 990.168 273.585 991.488 273.345C991.308 265.725 991.158 260.085 991.038 256.425C989.388 256.335 988.068 256.155 987.078 255.885L987.258 253.545C988.848 253.095 991.203 252.87 994.323 252.87C994.803 253.62 995.103 254.58 995.223 255.75C998.673 253.65 1000.73 252.6 1001.39 252.6C1002.05 252.6 1002.81 252.735 1003.68 253.005C1004.55 253.245 1005.2 253.515 1005.62 253.815C1005.62 256.815 1005.33 259.26 1004.76 261.15C1004.34 261.27 1003.85 261.33 1003.28 261.33C1002.74 261.33 1002.36 261.315 1002.15 261.285L1001.25 256.38Z" fill="#D2D2D2"/>
</svg>
