<svg width="667" height="667" viewBox="0 0 667 667" fill="none" xmlns="http://www.w3.org/2000/svg">
<path d="M66.6667 3H600C635.162 3 663.667 31.5045 663.667 66.6667V600C663.667 635.162 635.162 663.667 600 663.667H66.6667C31.5045 663.667 3 635.162 3 600V66.6667C3 31.5045 31.5045 3 66.6667 3Z" fill="black" stroke="white" stroke-width="6"/>
<path d="M362.87 311.779L364.379 313.301L366.308 312.367C379.313 306.067 393.56 302.753 408.01 302.667C433.732 302.669 458.401 312.889 476.589 331.077C494.78 349.268 505 373.941 505 399.667V499.667C505 507.712 501.804 515.427 496.116 521.116C490.427 526.804 482.712 530 474.667 530C466.622 530 458.906 526.804 453.218 521.116C447.529 515.427 444.333 507.712 444.333 499.667V399.667C444.333 390.03 440.505 380.789 433.692 373.975C426.878 367.161 417.636 363.333 408 363.333C398.364 363.333 389.122 367.161 382.308 373.975C375.495 380.789 371.667 390.03 371.667 399.667V499.667C371.667 507.712 368.471 515.427 362.782 521.116C357.094 526.804 349.378 530 341.333 530C333.288 530 325.573 526.804 319.884 521.116C314.196 515.427 311 507.712 311 499.667V333.005C311.027 327.009 312.83 321.155 316.182 316.182C319.536 311.208 324.29 307.34 329.841 305.067C335.393 302.795 341.495 302.219 347.374 303.414C353.253 304.609 358.645 307.52 362.87 311.779ZM186.551 311.551C192.24 305.862 199.955 302.667 208 302.667C216.045 302.667 223.76 305.862 229.449 311.551C235.138 317.24 238.333 324.955 238.333 333V499.667C238.333 507.712 235.138 515.427 229.449 521.116C223.76 526.804 216.045 530 208 530C199.955 530 192.24 526.804 186.551 521.116C180.863 515.427 177.667 507.712 177.667 499.667V333C177.667 324.955 180.863 317.24 186.551 311.551ZM181.888 143.921C189.617 138.757 198.704 136 208 136C220.465 136 232.42 140.952 241.234 149.766C250.048 158.58 255 170.535 255 183C255 192.296 252.244 201.383 247.079 209.112C241.915 216.841 234.574 222.865 225.986 226.422C217.398 229.98 207.948 230.91 198.831 229.097C189.714 227.283 181.339 222.807 174.766 216.234C168.193 209.661 163.717 201.286 161.903 192.169C160.09 183.052 161.02 173.602 164.578 165.014C168.135 156.426 174.159 149.085 181.888 143.921Z" fill="#2CA9BC" stroke="white" stroke-width="6"/>
</svg>
