<svg width="667" height="600" viewBox="0 0 667 600" fill="none" xmlns="http://www.w3.org/2000/svg">
<path d="M397 116.637L397 116.655L397 116.673C397.09 157.222 413.238 196.084 441.91 224.757C470.582 253.429 509.445 269.577 549.993 269.666L550 269.667L550.008 269.666C572.953 269.608 595.586 264.345 616.202 254.272C634.298 245.431 650.426 233.087 663.667 217.985V533.333C663.667 550.219 656.959 566.412 645.019 578.352C633.079 590.292 616.885 597 600 597H66.6667C49.7812 597 33.5873 590.292 21.6475 578.352C9.70772 566.412 3 550.219 3 533.333V133.333C3 116.448 9.70772 100.254 21.6475 88.314C33.5873 76.3742 49.7812 69.6665 66.6667 69.6665H405.069C399.885 84.7816 397.158 100.64 397 116.637Z" fill="black" stroke="white" stroke-width="6"/>
<path d="M80.2906 190.06L80.2831 190.053C74.169 184.824 70.3825 177.38 69.7568 169.359C69.131 161.338 71.7172 153.397 76.9464 147.283C82.1756 141.169 89.6195 137.383 97.6405 136.757C105.659 136.131 113.598 138.716 119.711 143.942C119.713 143.944 119.715 143.945 119.717 143.947L331.371 326.936L333.293 328.598L335.249 326.976L380.249 289.642L380.323 289.581L380.392 289.515C383.447 286.632 387.067 284.414 391.023 283.003C394.98 281.592 399.186 281.018 403.375 281.317C407.565 281.616 411.647 282.783 415.362 284.742C419.078 286.701 422.346 289.41 424.96 292.699C427.573 295.987 429.476 299.782 430.546 303.844C431.616 307.905 431.831 312.145 431.178 316.294C430.524 320.443 429.016 324.412 426.748 327.947C424.481 331.483 421.504 334.51 418.006 336.835L417.898 336.907L417.797 336.987L371.797 373.654L371.788 373.661C360.852 382.441 347.324 387.364 333.303 387.667C318.861 387.648 304.855 382.72 293.584 373.692L80.2906 190.06ZM486.85 22.1563C505.542 9.66643 527.519 3 550 3C580.146 3 609.058 14.9756 630.374 36.2922C651.691 57.6088 663.667 86.5204 663.667 116.667C663.667 139.148 657 161.124 644.51 179.816C632.02 198.509 614.268 213.078 593.498 221.681C572.728 230.284 549.874 232.535 527.825 228.149C505.775 223.763 485.522 212.938 469.625 197.041C453.729 181.145 442.903 160.891 438.517 138.842C434.131 116.793 436.382 93.9382 444.986 73.1683C453.589 52.3984 468.158 34.6461 486.85 22.1563Z" fill="#2CA9BC" stroke="white" stroke-width="6"/>
</svg>
