<?xml version="1.0" encoding="utf-8"?><!-- Uploaded to: SVG Repo, www.svgrepo.com, Generator: SVG Repo Mixer Tools -->
<svg fill="#000000" width="800px" height="800px" viewBox="0 0 24 24" id="mail-notification" data-name="Flat Color" xmlns="http://www.w3.org/2000/svg" class="icon flat-color"><path id="primary" d="M18.5,11A4.51,4.51,0,0,1,14,6.5,4.39,4.39,0,0,1,14.28,5H4A2,2,0,0,0,2,7V19a2,2,0,0,0,2,2H20a2,2,0,0,0,2-2V9.29A4.46,4.46,0,0,1,18.5,11Z" style="fill: rgb(0, 0, 0);"></path><path id="secondary" d="M12,14.72a2,2,0,0,1-1.25-.44L4.35,8.77a1,1,0,0,1,1.3-1.52L12,12.74l1.35-1.12a1,1,0,1,1,1.24,1.56l-1.38,1.1A2,2,0,0,1,12,14.72ZM18.5,3A3.5,3.5,0,1,0,22,6.5,3.5,3.5,0,0,0,18.5,3Z" style="fill: rgb(44, 169, 188);"></path></svg>